<svg xmlns="http://www.w3.org/2000/svg" xmlns:xlink="http://www.w3.org/1999/xlink" width="64" zoomAndPan="magnify" viewBox="0 0 48 48" height="64" preserveAspectRatio="xMidYMid meet" version="1.2"><defs><clipPath id="bce56338c4"><path d="M 1 0.882812 L 46 0.882812 L 46 46.433594 L 1 46.433594 Z M 1 0.882812 "/></clipPath></defs><g id="2e72a2bfef"><g clip-rule="nonzero" clip-path="url(#bce56338c4)"><path style=" stroke:none;fill-rule:nonzero;fill:#facc15;fill-opacity:1;" d="M 45.886719 16.4375 C 45.789062 15.84375 45.953125 15.472656 45.507812 14.957031 C 45.300781 14.730469 45.246094 14.40625 45.011719 14.226562 C 44.785156 14.089844 44.597656 13.917969 44.351562 13.820312 C 44.027344 13.65625 43.683594 13.628906 43.339844 13.539062 C 43.078125 13.449219 42.816406 13.429688 42.546875 13.449219 C 42.347656 13.359375 42.136719 13.414062 41.929688 13.421875 C 41.488281 13.429688 41.046875 13.386719 40.601562 13.476562 C 39.796875 13.503906 38.976562 13.503906 38.191406 13.738281 C 37.773438 13.898438 37.351562 13.664062 36.945312 13.863281 C 36.699219 14.019531 36.402344 13.847656 36.148438 13.953125 C 35.941406 14.054688 35.714844 14.054688 35.5 14.070312 C 35.355469 14.089844 35.210938 14.117188 35.066406 14.054688 C 35 14.027344 34.929688 14.035156 34.855469 14.054688 C 34.578125 14.179688 34.277344 14.191406 33.980469 14.171875 C 33.84375 14.152344 33.753906 14.261719 33.628906 14.269531 C 33.421875 14.269531 33.203125 14.378906 33.003906 14.242188 C 32.988281 14.226562 32.941406 14.226562 32.914062 14.242188 C 32.789062 14.308594 32.660156 14.261719 32.527344 14.242188 C 32.191406 14.171875 31.40625 14.550781 31.179688 14.226562 C 30.890625 13.820312 31.070312 13.257812 30.699219 12.898438 C 30.648438 12.84375 30.601562 12.761719 30.621094 12.691406 C 30.671875 12.402344 30.492188 12.136719 30.519531 11.847656 C 30.519531 11.796875 30.503906 11.742188 30.464844 11.703125 C 30.375 11.613281 30.367188 11.515625 30.402344 11.40625 C 30.410156 11.371094 30.421875 11.324219 30.402344 11.289062 C 30.304688 11.054688 30.277344 10.800781 30.203125 10.566406 C 30.148438 10.402344 30.085938 10.230469 30.09375 10.078125 C 30.113281 9.71875 29.941406 9.402344 29.878906 9.066406 C 29.851562 8.921875 29.851562 8.777344 29.824219 8.640625 C 29.789062 8.460938 29.625 8.324219 29.660156 8.128906 C 29.445312 7.847656 29.472656 7.484375 29.34375 7.160156 C 29.253906 6.828125 29.09375 6.519531 29.074219 6.167969 C 29.054688 6.058594 29.054688 5.949219 28.949219 5.886719 C 28.886719 5.851562 28.902344 5.777344 28.910156 5.714844 C 28.929688 5.578125 28.949219 5.445312 28.847656 5.316406 C 28.832031 5.289062 28.832031 5.246094 28.832031 5.210938 C 28.832031 5.109375 28.832031 5.019531 28.75 4.957031 C 28.722656 4.9375 28.703125 4.902344 28.714844 4.875 C 28.757812 4.710938 28.660156 4.59375 28.585938 4.46875 C 28.476562 4.332031 28.550781 4.160156 28.460938 4.035156 C 28.289062 3.835938 28.28125 3.546875 28.082031 3.367188 C 28.070312 3.066406 27.773438 3.121094 27.636719 2.941406 C 27.636719 2.824219 27.664062 2.671875 27.609375 2.570312 C 27.503906 2.390625 27.402344 2.191406 27.1875 2.109375 C 27.058594 2.066406 26.96875 1.984375 26.980469 1.839844 C 26.789062 1.277344 25.839844 0.882812 25.28125 0.882812 C 24.757812 0.9375 24.230469 0.945312 23.742188 1.171875 C 23.5 1.289062 23.273438 1.433594 23.039062 1.550781 C 22.40625 1.882812 22.007812 2.488281 21.539062 2.996094 C 21.242188 3.257812 21.179688 3.644531 20.917969 3.925781 C 20.617188 4.214844 20.519531 4.640625 20.273438 4.964844 C 20.003906 5.183594 19.976562 5.535156 19.8125 5.804688 C 19.886719 5.957031 19.761719 6.023438 19.679688 6.113281 C 19.460938 6.417969 19.273438 6.753906 19.207031 7.132812 C 18.9375 7.550781 18.65625 7.957031 18.476562 8.425781 C 18.441406 8.523438 18.476562 8.640625 18.421875 8.714844 C 18.261719 8.941406 18.160156 9.203125 18.023438 9.445312 C 17.898438 9.679688 17.746094 9.90625 17.699219 10.1875 C 17.699219 10.242188 17.671875 10.285156 17.628906 10.332031 C 17.472656 10.496094 17.429688 10.691406 17.429688 10.902344 C 17.429688 10.972656 17.429688 11.046875 17.382812 11.101562 C 17.167969 11.296875 17.113281 11.578125 17.011719 11.832031 C 16.949219 11.992188 16.824219 12.136719 16.816406 12.320312 C 16.816406 12.589844 16.460938 12.679688 16.550781 12.96875 C 16.570312 13.058594 16.550781 13.140625 16.480469 13.203125 C 16.363281 13.332031 16.289062 13.484375 16.210938 13.628906 C 16.109375 13.808594 16.09375 14.035156 16 14.234375 C 16.066406 14.441406 15.910156 14.703125 15.683594 14.695312 C 15.242188 14.625 14.917969 15.082031 14.464844 14.929688 C 14.347656 14.875 14.230469 15.011719 14.105469 14.984375 C 13.851562 14.949219 13.679688 15.136719 13.4375 15.226562 C 13.101562 14.914062 12.738281 15.398438 12.351562 15.246094 C 12.277344 15.226562 12.207031 15.308594 12.125 15.292969 C 11.890625 15.226562 11.664062 15.328125 11.449219 15.382812 C 11.292969 15.417969 11.148438 15.515625 10.988281 15.445312 C 10.960938 15.4375 10.90625 15.445312 10.878906 15.453125 C 10.699219 15.535156 10.480469 15.4375 10.300781 15.542969 C 10.09375 15.472656 9.902344 15.597656 9.695312 15.597656 C 9.433594 15.597656 9.152344 15.609375 8.910156 15.753906 C 8.882812 15.769531 8.847656 15.761719 8.820312 15.761719 C 8.601562 15.726562 8.421875 15.878906 8.214844 15.878906 C 8.097656 15.84375 7.996094 15.878906 7.914062 15.953125 C 7.625 16.148438 7.230469 15.988281 6.921875 16.1875 C 6.847656 16.222656 6.777344 16.242188 6.695312 16.230469 C 6.398438 16.195312 6.152344 16.394531 5.882812 16.457031 C 5.394531 16.503906 4.941406 16.710938 4.464844 16.746094 C 4.300781 16.746094 4.167969 16.800781 4.058594 16.925781 C 3.949219 17.054688 3.8125 17.0625 3.679688 16.988281 C 3.570312 16.925781 3.460938 16.9375 3.378906 17.007812 C 3.089844 17.261719 2.683594 17.207031 2.386719 17.414062 C 1.285156 18.410156 0.496094 19.167969 1.707031 20.53125 C 1.996094 20.882812 2.3125 21.21875 2.640625 21.550781 C 2.757812 21.671875 2.9375 21.707031 3.027344 21.84375 C 3.253906 22.105469 3.523438 22.320312 3.785156 22.539062 C 3.894531 22.617188 3.914062 22.761719 4.011719 22.855469 C 4.335938 23.207031 4.71875 23.476562 5.125 23.730469 C 5.351562 23.929688 5.574219 24.128906 5.828125 24.300781 C 6.242188 24.617188 6.703125 24.878906 7.101562 25.222656 C 7.4375 25.527344 7.886719 25.644531 8.195312 25.96875 C 8.421875 26.214844 8.71875 26.359375 8.992188 26.550781 C 9.28125 26.703125 9.46875 27.019531 9.804688 27.117188 C 9.886719 27.179688 9.910156 27.273438 10.019531 27.316406 C 10.480469 27.542969 10.804688 27.957031 11.238281 28.230469 C 11.554688 28.375 11.773438 28.636719 12.027344 28.863281 C 12.207031 29.042969 12.015625 29.332031 11.964844 29.539062 C 11.699219 30.027344 11.609375 30.578125 11.394531 31.074219 C 11.285156 31.265625 11.222656 31.472656 11.195312 31.691406 C 11.167969 31.871094 11.113281 32.042969 11.03125 32.195312 C 10.859375 32.511719 10.804688 32.863281 10.714844 33.207031 C 10.644531 33.496094 10.625 33.804688 10.492188 34.074219 C 10.445312 34.183594 10.417969 34.292969 10.410156 34.410156 C 10.335938 35.160156 10.09375 35.871094 10.003906 36.613281 C 9.957031 37.039062 9.832031 37.460938 9.792969 37.886719 C 9.613281 38.347656 9.714844 38.863281 9.558594 39.316406 C 9.496094 39.421875 9.476562 39.550781 9.496094 39.675781 C 9.53125 40.089844 9.46875 40.507812 9.476562 40.921875 C 9.488281 41.3125 9.414062 41.707031 9.605469 42.078125 C 9.632812 42.511719 9.804688 42.902344 9.992188 43.28125 C 10.011719 43.316406 10.039062 43.351562 10.066406 43.371094 C 10.445312 43.570312 10.292969 44.195312 10.78125 44.265625 C 10.832031 44.265625 10.859375 44.3125 10.886719 44.347656 C 11.023438 44.554688 11.230469 44.644531 11.464844 44.691406 C 11.53125 44.707031 11.601562 44.761719 11.664062 44.71875 C 11.808594 44.628906 11.910156 44.71875 12.015625 44.789062 C 12.0625 44.824219 12.097656 44.851562 12.160156 44.851562 C 12.332031 44.851562 12.515625 44.898438 12.6875 44.84375 C 12.730469 44.824219 12.777344 44.816406 12.820312 44.84375 C 12.9375 44.917969 13.046875 44.878906 13.171875 44.824219 C 13.28125 44.773438 13.410156 44.890625 13.527344 44.796875 C 13.589844 44.753906 13.644531 44.726562 13.714844 44.761719 C 14.167969 44.789062 14.4375 44.3125 14.835938 44.210938 C 15.042969 44.15625 15.242188 44.058594 15.386719 43.886719 C 15.460938 43.796875 15.539062 43.695312 15.648438 43.660156 C 16.054688 43.480469 16.261719 43.054688 16.660156 42.867188 C 16.789062 42.8125 16.90625 42.730469 17.003906 42.628906 C 17.339844 42.296875 17.683594 41.980469 18.078125 41.71875 C 18.640625 41.328125 19.082031 40.816406 19.617188 40.390625 C 19.867188 40.21875 20.074219 39.972656 20.300781 39.765625 C 21.304688 38.789062 22.378906 37.894531 23.410156 36.957031 C 23.878906 36.59375 24.347656 36.226562 24.746094 35.78125 C 24.808594 35.710938 24.902344 35.78125 24.917969 35.855469 C 25 36.054688 25.144531 36.207031 25.296875 36.351562 C 25.777344 36.6875 25.949219 37.292969 26.464844 37.605469 C 26.519531 37.644531 26.582031 37.671875 26.582031 37.742188 C 26.582031 37.921875 26.707031 38.058594 26.832031 38.140625 C 27.085938 38.292969 27.1875 38.566406 27.359375 38.773438 C 27.53125 38.988281 27.703125 39.1875 27.917969 39.351562 C 27.980469 39.394531 28.054688 39.433594 28.082031 39.511719 C 28.144531 39.730469 28.332031 39.867188 28.46875 40.019531 C 28.839844 40.398438 29.128906 40.859375 29.554688 41.195312 C 29.660156 41.339844 29.761719 41.472656 29.914062 41.582031 C 29.960938 41.617188 30.015625 41.65625 30.042969 41.71875 C 30.132812 41.953125 30.429688 41.945312 30.546875 42.167969 C 30.699219 42.351562 30.835938 42.550781 31.0625 42.667969 C 31.105469 42.695312 31.160156 42.722656 31.1875 42.765625 C 31.359375 43.035156 31.675781 43.109375 31.910156 43.300781 C 32.121094 43.542969 32.34375 43.761719 32.597656 43.949219 C 32.886719 44.175781 33.121094 44.484375 33.511719 44.554688 C 33.582031 44.5625 33.65625 44.601562 33.683594 44.691406 C 33.726562 44.84375 33.84375 44.898438 33.988281 44.945312 C 34.433594 45.015625 34.757812 45.324219 35.183594 45.421875 C 35.433594 45.496094 35.652344 45.667969 35.914062 45.691406 C 36.03125 45.710938 36.128906 45.757812 36.238281 45.792969 C 36.4375 45.863281 36.636719 45.964844 36.863281 45.964844 C 37.1875 45.964844 37.511719 46.007812 37.828125 45.945312 C 37.945312 45.929688 38.054688 45.945312 38.171875 45.980469 C 38.324219 46.035156 38.488281 46.101562 38.640625 46.074219 C 39.484375 46 39.90625 45.414062 40.476562 44.878906 C 40.648438 44.734375 40.757812 44.574219 40.738281 44.328125 C 40.730469 44.128906 40.773438 43.929688 40.683594 43.742188 C 40.710938 43.371094 40.8125 42.964844 40.640625 42.601562 C 40.59375 42.503906 40.53125 42.40625 40.539062 42.296875 C 40.59375 41.972656 40.476562 41.699219 40.324219 41.417969 C 40.214844 40.984375 40.195312 40.535156 40.015625 40.128906 C 39.933594 39.894531 39.953125 39.632812 39.824219 39.394531 C 39.761719 39.269531 39.671875 39.117188 39.691406 38.988281 C 39.726562 38.773438 39.644531 38.601562 39.601562 38.410156 C 39.464844 37.894531 39.21875 37.417969 39.09375 36.902344 C 39.046875 36.695312 38.929688 36.503906 38.851562 36.296875 C 38.695312 35.800781 38.578125 35.304688 38.363281 34.824219 C 37.972656 33.886719 37.722656 32.890625 37.339844 31.953125 C 37.222656 31.636719 37.105469 31.335938 37.035156 31.003906 C 36.988281 30.804688 36.945312 30.597656 36.808594 30.425781 C 36.753906 30.351562 36.699219 30.28125 36.671875 30.179688 C 36.539062 29.710938 36.3125 29.269531 36.167969 28.796875 C 36.105469 28.601562 36.066406 28.445312 36.210938 28.273438 C 36.328125 28.101562 36.574219 28.15625 36.664062 27.957031 C 36.835938 27.777344 37.089844 27.667969 37.25 27.480469 C 37.394531 27.253906 37.738281 27.261719 37.785156 26.984375 C 37.792969 26.929688 37.820312 26.902344 37.855469 26.875 C 38.40625 26.496094 38.921875 26.042969 39.429688 25.589844 C 39.589844 25.4375 39.78125 25.320312 39.878906 25.101562 C 40.097656 24.976562 40.277344 24.785156 40.476562 24.632812 C 40.65625 24.445312 40.757812 24.144531 41.007812 24.046875 C 41.234375 23.929688 41.363281 23.730469 41.496094 23.539062 C 41.597656 23.332031 41.875 23.332031 41.976562 23.125 C 42.09375 22.917969 42.21875 22.753906 42.4375 22.628906 C 42.789062 22.382812 43.042969 21.996094 43.3125 21.660156 C 43.394531 21.578125 43.484375 21.507812 43.492188 21.371094 C 43.492188 21.316406 43.53125 21.289062 43.585938 21.273438 C 43.890625 21.199219 43.9375 20.882812 44.097656 20.683594 C 44.152344 20.621094 44.179688 20.53125 44.253906 20.476562 C 44.289062 20.449219 44.324219 20.421875 44.34375 20.378906 C 44.460938 20.078125 44.722656 19.863281 44.804688 19.539062 C 44.820312 19.449219 44.957031 19.449219 44.976562 19.367188 C 44.984375 19.210938 45.121094 19.113281 45.175781 18.976562 C 45.300781 18.671875 45.480469 18.398438 45.589844 18.082031 C 45.652344 17.894531 45.671875 17.675781 45.816406 17.515625 C 45.84375 17.160156 46.03125 16.828125 45.953125 16.457031 Z M 45.886719 16.4375 "/></g><path style=" stroke:none;fill-rule:nonzero;fill:#a78bfa;fill-opacity:1;" d="M 43.808594 17.304688 C 43.214844 16.835938 42.390625 16.964844 41.703125 17.152344 C 41.398438 17.269531 40.992188 17.152344 40.730469 17.371094 C 40.585938 17.488281 40.457031 17.515625 40.285156 17.488281 C 39.863281 17.515625 39.429688 17.496094 39.003906 17.550781 C 38.640625 17.460938 38.289062 17.578125 37.929688 17.585938 C 37.539062 17.53125 37.179688 17.675781 36.800781 17.6875 C 36.285156 17.730469 35.75 17.6875 35.234375 17.8125 C 34.558594 17.910156 33.863281 17.976562 33.175781 18.039062 C 32.433594 18.164062 31.703125 18.238281 30.953125 18.226562 C 30.546875 18.183594 30.09375 18.390625 29.761719 18.019531 C 30.003906 17.8125 30.042969 17.441406 29.941406 17.160156 C 29.925781 17.109375 29.878906 17.054688 29.898438 16.988281 C 29.976562 16.773438 29.726562 16.65625 29.734375 16.464844 C 29.761719 16.292969 29.625 16.132812 29.699219 15.953125 C 29.597656 15.671875 29.425781 15.398438 29.453125 15.074219 C 29.410156 14.625 29.355469 14.179688 29.175781 13.746094 C 28.703125 12.527344 28.289062 11.28125 27.820312 10.0625 C 27.628906 9.4375 27.457031 8.796875 27.429688 8.144531 C 27.464844 7.910156 27.304688 7.71875 27.332031 7.496094 C 27.375 6.980469 27.203125 6.5 27.140625 5.984375 C 26.871094 4.703125 26.878906 4.035156 25.605469 3.320312 C 25.40625 3.175781 25.214844 3.320312 25.027344 3.402344 C 24.71875 3.429688 24.808594 3.761719 24.792969 3.980469 C 24.792969 4.042969 24.792969 4.105469 24.730469 4.144531 C 24.492188 4.296875 24.375 4.539062 24.230469 4.765625 C 24.160156 4.929688 23.96875 4.984375 23.933594 5.164062 C 23.816406 5.472656 23.636719 5.742188 23.4375 6.003906 C 23.246094 6.265625 23.140625 6.554688 23.101562 6.871094 C 23.101562 6.953125 23.09375 7.035156 23.046875 7.089844 C 22.941406 7.25 22.902344 7.421875 22.875 7.601562 C 22.875 7.65625 22.867188 7.710938 22.804688 7.730469 C 22.625 7.792969 22.578125 7.964844 22.496094 8.109375 C 22.390625 8.300781 22.261719 8.480469 22.253906 8.707031 C 22.199219 8.785156 22.109375 8.832031 22.089844 8.949219 C 21.8125 9.664062 21.394531 10.332031 21.1875 11.074219 C 21.125 11.425781 20.925781 11.714844 20.800781 12.046875 C 20.601562 12.734375 20.375 13.421875 20.066406 14.070312 C 19.894531 14.714844 19.6875 15.371094 19.398438 15.976562 C 19.144531 16.359375 19.0625 16.820312 18.828125 17.207031 C 18.847656 17.398438 18.730469 17.53125 18.628906 17.675781 C 18.441406 18.054688 18.214844 17.667969 18.015625 17.921875 C 17.945312 18.019531 17.835938 18.019531 17.753906 17.957031 C 17.472656 17.785156 17.09375 17.9375 16.816406 17.777344 C 16.617188 17.667969 16.371094 17.714844 16.199219 17.550781 C 15.945312 17.570312 15.722656 17.46875 15.46875 17.46875 C 15.0625 17.476562 14.664062 17.414062 14.285156 17.28125 C 13.960938 17.179688 13.597656 17.199219 13.300781 17 C 13.066406 16.917969 12.804688 17.0625 12.566406 16.925781 C 12.398438 16.925781 12.214844 17 12.042969 17 C 11.621094 16.953125 11.222656 17.144531 10.796875 17.109375 C 10.4375 17.179688 10.082031 17.351562 9.695312 17.351562 C 9.515625 17.351562 9.351562 17.441406 9.1875 17.515625 C 9 17.585938 8.792969 17.59375 8.621094 17.6875 C 8.230469 17.875 7.808594 17.9375 7.417969 18.109375 C 7.113281 18.300781 6.757812 18.335938 6.425781 18.390625 C 6.054688 18.445312 5.683594 18.527344 5.3125 18.589844 C 4.664062 18.734375 3.804688 18.652344 3.417969 19.292969 C 3.324219 19.464844 3.34375 19.519531 3.523438 19.582031 C 4.101562 19.828125 4.734375 19.726562 5.332031 19.816406 C 5.675781 19.925781 6.019531 20.054688 6.351562 20.179688 C 7.183594 20.667969 8.023438 21.144531 8.828125 21.6875 C 9 21.824219 9.214844 21.90625 9.398438 22.03125 C 9.53125 22.121094 9.621094 22.257812 9.765625 22.339844 C 10.582031 22.71875 11.195312 23.378906 12.015625 23.730469 C 12.34375 23.8125 12.613281 24.039062 12.875 24.226562 C 13.109375 24.433594 13.445312 24.453125 13.644531 24.695312 C 13.652344 24.714844 13.6875 24.714844 13.707031 24.714844 C 13.886719 24.714844 14.023438 24.804688 14.132812 24.941406 C 14.195312 25.023438 14.277344 25.058594 14.375 25.039062 C 14.457031 25.03125 14.539062 25.023438 14.59375 25.09375 C 14.933594 25.5 15.585938 25.527344 15.75 26.089844 C 15.839844 26.351562 16.136719 27.335938 15.738281 27.417969 C 15.578125 27.417969 15.414062 27.480469 15.242188 27.398438 C 14.816406 27.21875 14.882812 27.886719 14.621094 28.058594 C 14.472656 28.4375 14.402344 28.863281 14.132812 29.195312 C 14.050781 29.304688 14.085938 29.457031 14.015625 29.558594 C 13.824219 29.773438 13.789062 30.074219 13.625 30.308594 C 13.5625 30.398438 13.515625 30.507812 13.515625 30.632812 C 13.199219 31.691406 12.765625 32.730469 12.542969 33.820312 C 12.523438 34.371094 12.296875 34.886719 12.277344 35.4375 C 12.199219 35.726562 12.207031 36.054688 12.125 36.316406 C 12.035156 36.488281 12.082031 36.695312 12.015625 36.875 C 11.835938 37.292969 11.945312 37.761719 11.792969 38.175781 C 11.582031 38.917969 11.492188 39.683594 11.429688 40.445312 C 11.382812 40.984375 11.230469 41.511719 11.230469 42.050781 C 11.257812 42.359375 11.429688 42.550781 11.738281 42.578125 C 11.828125 42.578125 11.890625 42.613281 11.945312 42.695312 C 12.125 42.9375 12.351562 43.109375 12.675781 43.109375 C 12.777344 43.109375 12.847656 43.082031 12.921875 43.019531 C 13.472656 42.59375 13.597656 41.773438 14.3125 41.539062 C 14.382812 41.511719 14.457031 41.472656 14.511719 41.417969 C 14.835938 41.113281 15.242188 40.90625 15.511719 40.542969 C 15.539062 40.507812 15.585938 40.480469 15.621094 40.453125 C 15.9375 40.289062 16.117188 39.972656 16.382812 39.757812 C 16.722656 39.566406 16.996094 39.269531 17.320312 39.0625 C 17.355469 39.035156 17.394531 39 17.402344 38.953125 C 17.417969 38.78125 17.554688 38.691406 17.683594 38.609375 C 17.933594 38.5 17.898438 38.148438 18.167969 38.09375 C 18.476562 38.03125 18.539062 37.6875 18.785156 37.527344 C 19.183594 37.21875 19.496094 36.839844 19.894531 36.53125 C 19.96875 36.476562 20.03125 36.40625 20.074219 36.324219 C 20.210938 36.027344 20.617188 36.007812 20.707031 35.683594 C 20.71875 35.621094 20.773438 35.601562 20.824219 35.582031 C 21.042969 35.503906 21.125 35.277344 21.296875 35.148438 C 21.394531 35.085938 21.496094 35.023438 21.503906 34.886719 C 21.503906 34.832031 21.546875 34.804688 21.601562 34.796875 C 21.882812 34.742188 21.9375 34.5 22.125 34.335938 C 22.417969 34.128906 22.652344 33.867188 22.875 33.597656 C 23.164062 33.226562 23.582031 33.007812 23.898438 32.683594 C 23.941406 32.621094 24.007812 32.585938 24.085938 32.558594 C 24.429688 32.457031 24.621094 32.125 24.953125 32.023438 C 25.261719 31.871094 25.453125 32.148438 25.730469 32.195312 C 25.796875 32.195312 25.859375 32.222656 25.894531 32.269531 C 26.019531 32.402344 26.203125 32.449219 26.375 32.484375 C 26.617188 32.53125 26.796875 32.703125 27.023438 32.773438 C 27.058594 32.78125 27.097656 32.828125 27.125 32.863281 C 27.304688 33.136719 27.53125 33.351562 27.78125 33.542969 C 27.828125 33.578125 27.890625 33.621094 27.898438 33.675781 C 27.925781 33.902344 28.160156 33.921875 28.289062 34.066406 C 28.40625 34.203125 28.476562 34.382812 28.667969 34.453125 C 28.6875 34.453125 28.703125 34.492188 28.703125 34.507812 C 28.730469 34.625 28.820312 34.679688 28.902344 34.753906 C 29.148438 34.96875 29.265625 35.285156 29.527344 35.484375 C 29.914062 35.863281 30.203125 36.304688 30.527344 36.738281 C 30.71875 37.027344 31.089844 37.144531 31.179688 37.515625 C 31.179688 37.554688 31.226562 37.582031 31.25 37.605469 C 31.460938 37.886719 31.722656 38.132812 31.902344 38.4375 C 32.300781 38.800781 32.644531 39.214844 32.976562 39.632812 C 33.457031 40.21875 34.0625 40.6875 34.511719 41.292969 C 34.132812 41.121094 33.898438 40.742188 33.484375 40.578125 C 33.617188 41.113281 33.285156 41.464844 32.796875 41.105469 C 32.644531 40.949219 32.445312 40.859375 32.34375 40.660156 C 32.289062 40.597656 32.144531 40.5625 32.109375 40.488281 C 32.039062 40.261719 31.867188 40.210938 31.6875 40.101562 C 31.53125 39.855469 31.304688 39.667969 31.125 39.441406 C 31.027344 39.324219 30.960938 39.171875 30.816406 39.097656 C 30.628906 39.015625 30.511719 38.855469 30.359375 38.738281 C 29.84375 38.3125 29.480469 37.742188 28.839844 37.460938 C 28.964844 37.761719 29.320312 37.851562 29.382812 38.195312 C 29.445312 38.492188 29.753906 38.609375 29.878906 38.871094 C 29.898438 38.933594 29.941406 38.980469 29.996094 39.015625 C 30.085938 39.070312 30.140625 39.152344 30.1875 39.242188 C 30.332031 39.523438 30.519531 39.765625 30.78125 39.964844 C 30.84375 40.011719 30.898438 40.066406 30.9375 40.136719 C 31.132812 40.480469 31.460938 40.707031 31.695312 41.023438 C 31.75 41.128906 31.894531 41.128906 31.976562 41.210938 C 32.289062 41.484375 32.617188 41.746094 32.90625 42.050781 C 33.085938 42.269531 33.375 42.3125 33.554688 42.523438 C 33.628906 42.613281 33.726562 42.683594 33.835938 42.722656 C 34.242188 42.828125 34.585938 43.074219 34.902344 43.335938 C 35.234375 43.507812 35.570312 43.6875 35.933594 43.785156 C 36.078125 43.824219 36.222656 43.851562 36.367188 43.785156 C 36.773438 43.667969 36.746094 44.390625 37.8125 44.175781 C 38.246094 44.101562 38.179688 43.605469 38.371094 43.308594 C 38.605469 42.882812 38.613281 42.394531 38.496094 41.925781 C 38.480469 41.789062 38.453125 41.644531 38.371094 41.539062 C 38.308594 41.457031 38.28125 41.367188 38.261719 41.265625 C 38.207031 40.742188 37.820312 40.34375 37.675781 39.867188 C 37.539062 39.316406 37.195312 38.835938 37.117188 38.265625 C 36.851562 37.894531 36.753906 37.472656 36.609375 37.054688 C 36.601562 37.027344 36.609375 36.992188 36.609375 36.964844 C 36.664062 36.785156 36.511719 36.632812 36.511719 36.460938 C 36.539062 36.097656 36.15625 35.871094 36.25 35.511719 C 36.273438 35.121094 35.976562 34.796875 36.011719 34.398438 C 36.011719 34.308594 35.976562 34.238281 35.914062 34.175781 C 35.644531 33.875 35.761719 33.441406 35.523438 33.117188 C 35.425781 32.980469 35.453125 32.792969 35.460938 32.628906 C 35.335938 32.160156 35.171875 31.699219 34.984375 31.246094 C 34.945312 31.058594 34.820312 30.894531 34.820312 30.703125 C 34.820312 30.625 34.800781 30.558594 34.777344 30.488281 C 34.59375 30.164062 34.613281 29.785156 34.496094 29.429688 C 34.433594 29.179688 34.378906 28.925781 34.277344 28.691406 C 34.234375 28.589844 34.242188 28.492188 34.269531 28.402344 C 34.332031 28.183594 34.40625 27.96875 34.394531 27.730469 C 34.394531 27.660156 34.421875 27.597656 34.476562 27.542969 C 34.65625 27.371094 34.621094 27.082031 34.792969 26.917969 C 34.992188 26.710938 35.28125 26.628906 35.507812 26.449219 C 35.90625 26.070312 36.292969 25.671875 36.734375 25.347656 C 37.511719 24.769531 38.300781 24.183594 39.046875 23.566406 C 39.21875 23.324219 39.519531 23.242188 39.71875 23.042969 C 40.503906 22.210938 41.269531 21.363281 42.113281 20.585938 C 42.230469 20.476562 42.335938 20.359375 42.382812 20.214844 C 42.464844 19.945312 42.652344 19.746094 42.796875 19.511719 C 43.007812 19.195312 43.359375 19.003906 43.546875 18.671875 C 43.738281 18.253906 44.296875 17.667969 43.820312 17.289062 Z M 43.808594 17.304688 "/><path style=" stroke:none;fill-rule:nonzero;fill:#1e3a8a;fill-opacity:1;" d="M 43.457031 16.566406 C 43.746094 16.03125 43.511719 15.308594 42.996094 15.003906 C 42.871094 14.921875 42.753906 14.886719 42.609375 14.957031 C 42.527344 15.003906 42.429688 15.003906 42.335938 15.003906 C 41.992188 14.976562 41.667969 15.109375 41.324219 15.109375 C 41.019531 15.046875 40.757812 15.273438 40.46875 15.21875 C 40.25 15.175781 40.023438 15.265625 39.808594 15.183594 C 39.546875 15.210938 39.300781 15.363281 39.03125 15.265625 C 38.996094 15.253906 38.957031 15.265625 38.914062 15.28125 C 38.171875 15.410156 37.394531 15.417969 36.636719 15.390625 C 36.382812 15.335938 36.128906 15.445312 35.878906 15.417969 C 35.761719 15.398438 35.652344 15.417969 35.535156 15.445312 C 35.398438 15.480469 35.253906 15.5 35.109375 15.515625 C 34.972656 15.535156 34.875 15.453125 34.75 15.472656 C 34.195312 15.472656 33.664062 15.5625 33.113281 15.625 C 32.617188 15.636719 32.128906 15.652344 31.640625 15.753906 C 31.1875 15.871094 30.710938 15.734375 30.277344 15.925781 C 30.230469 15.941406 30.1875 15.96875 30.140625 15.941406 C 30.042969 15.859375 29.933594 15.851562 29.816406 15.878906 C 29.769531 15.886719 29.726562 15.851562 29.699219 15.816406 C 29.5625 15.652344 29.390625 15.554688 29.199219 15.480469 C 28.859375 15.347656 28.984375 14.914062 28.847656 14.632812 C 28.585938 13.820312 28.453125 12.96875 28.199219 12.15625 C 28 11.496094 27.847656 10.835938 27.691406 10.167969 C 27.609375 9.761719 27.601562 9.3125 27.421875 8.929688 C 27.304688 8.785156 27.367188 8.589844 27.3125 8.417969 C 27.1875 8.0625 27.132812 7.683594 27.003906 7.324219 C 26.960938 7.195312 27.003906 7.050781 26.925781 6.945312 C 26.816406 6.800781 26.808594 6.65625 26.816406 6.484375 C 26.726562 5.976562 26.5 5.5 26.375 5 C 26.253906 4.613281 26.203125 4.195312 25.929688 3.871094 C 25.867188 3.789062 25.8125 3.710938 25.804688 3.609375 C 25.722656 3.257812 25.234375 3.265625 24.953125 3.304688 C 24.015625 3.394531 23.554688 3.933594 23.011719 4.628906 C 22.75 4.957031 22.613281 5.371094 22.351562 5.695312 C 22.199219 5.894531 22.117188 6.128906 21.9375 6.300781 C 21.792969 6.539062 21.667969 6.800781 21.484375 7.007812 C 21.585938 6.402344 22.234375 5.617188 21.863281 5.039062 C 21.738281 4.894531 21.613281 4.992188 21.566406 5.144531 C 21.429688 5.40625 21.324219 5.679688 21.167969 5.921875 C 20.835938 6.417969 20.679688 7.007812 20.347656 7.496094 C 20.328125 7.523438 20.328125 7.566406 20.320312 7.601562 C 20.320312 7.648438 20.320312 7.703125 20.273438 7.730469 C 20.09375 7.875 20.121094 8.128906 20.011719 8.308594 C 19.785156 8.625 19.75 9.011719 19.570312 9.335938 C 19.445312 9.5625 19.488281 9.851562 19.308594 10.0625 C 19.273438 10.113281 19.308594 10.25 19.253906 10.304688 C 19.15625 10.394531 19.15625 10.519531 19.117188 10.640625 C 18.992188 11.089844 18.855469 11.535156 18.703125 11.96875 C 18.476562 12.671875 18.339844 13.449219 18.050781 14.136719 C 17.980469 14.253906 17.933594 14.359375 17.933594 14.496094 C 17.933594 14.578125 17.933594 14.675781 17.863281 14.730469 C 17.617188 14.921875 17.601562 15.226562 17.457031 15.464844 C 17.328125 15.664062 17.230469 15.898438 17.15625 16.132812 C 17.121094 16.257812 17.03125 16.386719 16.90625 16.410156 C 16.714844 16.449219 16.542969 16.554688 16.335938 16.511719 C 16.289062 16.503906 16.246094 16.511719 16.199219 16.53125 C 15.8125 16.699219 15.359375 16.574219 15 16.773438 C 14.789062 16.898438 14.527344 16.675781 14.320312 16.898438 C 14.277344 16.945312 14.203125 16.9375 14.140625 16.925781 C 13.699219 16.84375 13.273438 16.945312 12.839844 17 C 12.675781 17.027344 12.503906 17.042969 12.34375 17.0625 C 12.054688 17.089844 11.773438 17.261719 11.464844 17.144531 C 11.058594 17.296875 10.625 17.253906 10.203125 17.289062 C 9.9375 17.289062 9.660156 17.351562 9.398438 17.460938 C 9.269531 17.515625 9.109375 17.578125 8.953125 17.496094 C 8.925781 17.476562 8.882812 17.496094 8.835938 17.496094 C 8.65625 17.515625 8.464844 17.515625 8.304688 17.613281 C 8.257812 17.640625 8.1875 17.640625 8.125 17.632812 C 8.015625 17.621094 7.925781 17.648438 7.835938 17.695312 C 7.625 17.785156 7.402344 17.777344 7.175781 17.820312 C 6.839844 17.839844 6.53125 18.019531 6.199219 18.046875 C 6.054688 18.066406 5.910156 18.082031 5.785156 18.183594 C 5.757812 18.210938 5.710938 18.21875 5.675781 18.210938 C 5.367188 18.191406 5.085938 18.300781 4.808594 18.417969 C 4.183594 18.527344 3.722656 19.015625 3.535156 19.601562 C 3.488281 19.746094 3.40625 19.898438 3.496094 20.054688 C 3.679688 20.351562 3.867188 20.660156 4.238281 20.765625 C 4.285156 20.777344 4.335938 20.792969 4.355469 20.828125 C 4.429688 21 4.582031 21.101562 4.707031 21.21875 C 5.105469 21.644531 5.574219 21.976562 6.0625 22.285156 C 6.378906 22.539062 6.703125 22.789062 7.039062 23.023438 C 7.625 23.40625 8.132812 23.902344 8.773438 24.199219 C 9.179688 24.589844 9.703125 24.8125 10.183594 25.113281 C 10.742188 25.402344 11.320312 25.636719 11.871094 25.953125 C 12.082031 26.070312 12.324219 26.125 12.523438 26.242188 C 12.621094 26.367188 12.777344 26.421875 12.910156 26.476562 C 13.382812 26.667969 13.84375 26.890625 14.339844 26.992188 C 13.589844 29.285156 13.121094 31.652344 12.738281 34.039062 C 12.605469 34.988281 12.324219 36 12.324219 36.957031 C 12.371094 36.957031 12.398438 36.894531 12.441406 36.957031 C 12.441406 37.328125 12.296875 37.671875 12.253906 38.03125 C 12.199219 38.484375 12.117188 38.925781 12.007812 39.367188 C 11.972656 39.511719 11.945312 39.65625 11.953125 39.800781 C 11.980469 40.371094 11.835938 40.921875 11.945312 41.484375 C 11.988281 41.707031 12.117188 41.890625 12.214844 42.089844 C 12.359375 42.378906 12.648438 42.367188 12.902344 42.414062 C 13.09375 42.566406 13.246094 42.394531 13.453125 42.457031 C 13.480469 42.585938 13.507812 42.765625 13.679688 42.710938 C 14.105469 42.621094 14.421875 42.332031 14.78125 42.117188 C 14.972656 42 15.132812 41.863281 15.296875 41.699219 C 15.441406 41.554688 15.675781 41.5 15.8125 41.3125 C 15.957031 41.3125 16.054688 41.203125 16.128906 41.113281 C 16.253906 40.960938 16.433594 40.851562 16.589844 40.742188 C 16.652344 40.597656 16.804688 40.5625 16.914062 40.480469 C 17.210938 40.238281 17.554688 40.019531 17.773438 39.683594 C 17.789062 39.648438 17.816406 39.621094 17.863281 39.621094 C 18.0625 39.585938 18.160156 39.421875 18.289062 39.289062 C 18.351562 39.222656 18.394531 39.144531 18.484375 39.105469 C 18.539062 39.089844 18.578125 39.054688 18.601562 39.007812 C 18.683594 38.882812 18.8125 38.800781 18.910156 38.699219 C 19.046875 38.566406 19.234375 38.511719 19.34375 38.355469 C 19.453125 38.203125 19.589844 38.085938 19.714844 37.949219 C 19.90625 37.714844 20.058594 37.480469 20.355469 37.382812 C 20.527344 37.28125 20.65625 37.09375 20.761719 36.921875 C 20.800781 36.839844 20.871094 36.765625 20.96875 36.738281 C 21.023438 36.722656 21.070312 36.695312 21.105469 36.660156 C 21.3125 36.414062 21.585938 36.214844 21.773438 35.964844 C 22.054688 35.609375 22.390625 35.320312 22.660156 34.976562 C 23.148438 34.464844 23.707031 34.003906 24.070312 33.378906 C 24.160156 33.226562 24.25 33.179688 24.375 33.289062 C 24.730469 33.53125 25.191406 33.613281 25.378906 34.046875 C 25.460938 34.191406 25.515625 34.382812 25.714844 34.4375 C 25.75 34.445312 25.769531 34.492188 25.777344 34.527344 C 25.859375 34.78125 26.136719 34.90625 26.203125 35.167969 C 26.238281 35.277344 26.382812 35.285156 26.445312 35.375 C 27.863281 37.074219 29.210938 38.828125 30.746094 40.417969 C 31.199219 40.886719 31.660156 41.339844 32.15625 41.761719 C 32.238281 41.835938 32.328125 41.898438 32.425781 41.933594 C 32.589844 41.988281 32.589844 41.988281 32.722656 41.816406 C 31.648438 40.867188 30.628906 39.867188 29.671875 38.78125 C 29.734375 38.753906 29.769531 38.773438 29.789062 38.800781 C 29.949219 39.027344 30.238281 39.125 30.367188 39.378906 C 30.421875 39.460938 30.566406 39.441406 30.59375 39.558594 C 30.628906 39.640625 30.691406 39.695312 30.78125 39.710938 C 30.828125 39.710938 30.882812 39.738281 30.898438 39.785156 C 30.988281 40.066406 31.304688 40.117188 31.460938 40.34375 C 31.523438 40.445312 31.667969 40.527344 31.757812 40.625 C 31.804688 40.671875 31.839844 40.722656 31.910156 40.722656 C 32.226562 40.75 32.246094 41.183594 32.5625 41.222656 C 32.605469 41.222656 32.632812 41.273438 32.660156 41.3125 C 32.933594 41.644531 33.292969 41.855469 33.65625 42.078125 C 33.789062 42.144531 33.945312 42.207031 33.960938 42.394531 C 33.960938 42.421875 34 42.441406 34.027344 42.457031 C 34.214844 42.628906 34.503906 42.765625 34.648438 42.957031 C 34.738281 43.164062 34.984375 43.199219 35.074219 43.390625 C 35.390625 43.605469 35.714844 43.8125 36.023438 44.050781 C 36.148438 44.140625 36.3125 44.113281 36.4375 44.183594 C 36.734375 44.355469 37.050781 44.167969 37.351562 44.101562 C 37.476562 44.066406 37.640625 44.050781 37.675781 43.914062 C 37.746094 43.679688 37.945312 43.488281 37.9375 43.234375 C 37.910156 42.757812 37.757812 42.304688 37.578125 41.863281 C 37.503906 41.554688 37.511719 41.222656 37.378906 40.933594 C 37.269531 40.625 37.242188 40.300781 37.117188 40 C 37.0625 39.875 37.035156 39.730469 37.007812 39.605469 C 36.972656 39.433594 36.871094 39.277344 36.871094 39.097656 C 36.871094 39 36.828125 38.910156 36.78125 38.816406 C 36.734375 38.726562 36.65625 38.636719 36.707031 38.511719 C 36.71875 38.484375 36.707031 38.449219 36.691406 38.421875 C 36.574219 38.195312 36.589844 37.921875 36.445312 37.714844 C 36.4375 37.371094 36.183594 37.101562 36.175781 36.75 C 36.175781 36.605469 36.105469 36.441406 36.050781 36.289062 C 35.984375 36.117188 36.003906 35.910156 35.90625 35.78125 C 35.761719 35.601562 35.742188 35.394531 35.707031 35.203125 C 35.660156 34.96875 35.550781 34.753906 35.5 34.527344 C 35.28125 33.785156 35 33.035156 34.867188 32.277344 C 34.839844 31.898438 34.648438 31.554688 34.65625 31.175781 C 34.585938 30.804688 34.449219 30.433594 34.433594 30.046875 C 34.433594 29.980469 34.40625 29.902344 34.367188 29.847656 C 34.222656 29.566406 34.242188 29.242188 34.242188 28.941406 C 34.242188 28.835938 34.222656 28.734375 34.160156 28.636719 C 34.050781 28.472656 34.015625 28.285156 34.027344 28.085938 C 34.027344 27.894531 34.089844 27.707031 34.0625 27.507812 C 34.097656 27.316406 34.222656 27.136719 34.324219 26.972656 C 34.75 26.179688 35.570312 25.726562 36.167969 25.078125 C 36.554688 24.679688 36.980469 24.316406 37.324219 23.875 C 38.695312 22.402344 39.878906 20.738281 41.335938 19.339844 C 40.730469 20.214844 40.023438 21.019531 39.375 21.851562 C 38.984375 22.347656 38.570312 22.808594 38.207031 23.324219 C 38.164062 23.394531 38.089844 23.460938 38.101562 23.578125 C 38.578125 23.289062 38.878906 22.871094 39.246094 22.472656 C 39.808594 21.859375 40.367188 21.238281 40.929688 20.632812 C 41.902344 19.484375 43.007812 18.371094 43.464844 16.910156 C 43.53125 16.78125 43.558594 16.636719 43.421875 16.539062 Z M 21.351562 7.351562 C 21.402344 7.46875 21.367188 7.511719 21.269531 7.558594 C 21.25 7.46875 21.269531 7.414062 21.351562 7.351562 Z M 13.027344 34.734375 C 12.949219 35.085938 12.855469 35.4375 12.765625 35.78125 C 12.730469 35.910156 12.765625 36.042969 12.640625 36.199219 C 12.9375 34.246094 13.460938 32.367188 13.878906 30.441406 C 14.132812 29.296875 14.394531 28.15625 14.726562 27.035156 C 14.882812 27 15.070312 27.007812 15 27.207031 C 14.789062 27.957031 14.511719 28.691406 14.339844 29.449219 C 14.132812 30.0625 13.949219 30.675781 13.859375 31.328125 C 13.789062 31.636719 13.671875 31.933594 13.671875 32.25 C 13.671875 32.601562 13.34375 32.882812 13.417969 33.242188 C 13.425781 33.296875 13.417969 33.351562 13.398438 33.398438 C 13.21875 33.820312 13.148438 34.28125 13.039062 34.734375 Z M 40.855469 17.902344 C 40.449219 18.335938 40.070312 18.84375 39.636719 19.25 C 39.4375 19.421875 39.3125 19.664062 39.046875 19.753906 C 39.03125 19.753906 39.003906 19.78125 38.996094 19.800781 C 38.859375 20.105469 38.550781 20.269531 38.324219 20.496094 C 38.074219 20.738281 37.917969 21.101562 37.585938 21.246094 C 37.429688 21.300781 37.332031 21.398438 37.3125 21.5625 C 37.304688 21.644531 37.261719 21.6875 37.1875 21.742188 C 36.988281 21.878906 36.800781 22.023438 36.601562 22.148438 C 36.457031 22.238281 36.367188 22.410156 36.230469 22.527344 C 35.996094 22.726562 35.777344 22.945312 35.644531 23.234375 C 35.445312 23.277344 35.335938 23.46875 35.15625 23.550781 C 35.109375 23.566406 35.054688 23.578125 35.039062 23.621094 C 34.984375 23.8125 34.792969 23.894531 34.695312 24.046875 C 34.683594 24.0625 34.667969 24.089844 34.648438 24.101562 C 34.394531 24.21875 34.289062 24.460938 34.144531 24.6875 C 33.933594 25.003906 33.527344 25.101562 33.367188 25.445312 C 33.238281 25.628906 33.050781 25.746094 32.976562 25.960938 C 32.960938 26.015625 32.933594 26.0625 32.878906 26.089844 C 32.507812 26.324219 32.390625 26.683594 32.273438 27.082031 C 32.09375 27.027344 32.027344 27.128906 31.964844 27.289062 C 31.585938 28.445312 32.273438 29.574219 32.605469 30.667969 C 32.644531 30.757812 32.660156 30.867188 32.714844 30.949219 C 32.988281 31.410156 32.960938 31.96875 33.230469 32.4375 C 33.375 32.765625 33.375 33.144531 33.566406 33.460938 C 33.710938 33.695312 33.753906 33.984375 33.789062 34.253906 C 33.933594 34.445312 33.90625 34.679688 33.960938 34.898438 C 34.035156 35.175781 34.144531 35.449219 34.234375 35.726562 C 34.296875 35.910156 34.367188 36.089844 34.460938 36.261719 C 34.539062 36.398438 34.53125 36.558594 34.550781 36.710938 C 34.578125 36.964844 34.695312 37.183594 34.765625 37.417969 C 34.785156 37.472656 34.820312 37.515625 34.820312 37.570312 C 34.839844 37.921875 34.972656 38.238281 35.039062 38.582031 C 35.101562 39.132812 35.460938 39.621094 35.480469 40.171875 C 35.625 40.488281 35.617188 40.859375 35.75 41.167969 C 35.933594 41.671875 36.210938 42.144531 36.320312 42.675781 C 36.210938 42.738281 36.140625 42.703125 36.085938 42.65625 C 35.597656 42.277344 35.199219 41.800781 34.730469 41.402344 C 34.277344 40.996094 33.890625 40.535156 33.421875 40.164062 C 33.175781 39.929688 32.996094 39.632812 32.714844 39.433594 C 31.476562 38.175781 30.277344 36.882812 28.992188 35.675781 C 28.261719 35.023438 27.558594 34.355469 26.859375 33.648438 C 26.453125 33.289062 26.019531 32.972656 25.605469 32.621094 C 25.46875 32.492188 25.324219 32.386719 25.125 32.367188 C 24.820312 32.242188 24.503906 32.105469 24.179688 31.996094 C 24.113281 31.96875 24.035156 31.960938 23.980469 31.996094 C 23.863281 32.070312 23.726562 32.058594 23.597656 32.078125 C 23.140625 32.160156 22.695312 32.375 22.398438 32.746094 C 22.273438 32.925781 22.082031 33.0625 21.910156 33.207031 C 21.613281 33.441406 21.457031 33.804688 21.125 34.011719 C 21.007812 34.109375 20.878906 34.203125 20.789062 34.328125 C 20.554688 34.660156 20.21875 34.898438 19.914062 35.160156 C 19.207031 35.800781 18.441406 36.386719 17.789062 37.101562 C 17.4375 37.316406 17.085938 37.542969 16.839844 37.886719 C 16.742188 38.039062 16.5625 38.066406 16.445312 38.183594 C 16.136719 38.492188 15.777344 38.746094 15.503906 39.089844 C 15.476562 39.125 15.441406 39.160156 15.394531 39.171875 C 15.277344 39.207031 15.207031 39.296875 15.132812 39.386719 C 14.738281 39.710938 14.382812 40.101562 13.996094 40.445312 C 13.90625 40.527344 13.96875 40.722656 13.824219 40.742188 C 13.597656 40.769531 13.5 40.949219 13.308594 41.039062 C 13.210938 40.960938 13.21875 40.839844 13.238281 40.742188 C 13.292969 40.507812 13.273438 40.261719 13.292969 40.027344 C 13.292969 39.910156 13.292969 39.785156 13.355469 39.667969 C 13.410156 39.566406 13.355469 39.46875 13.316406 39.367188 C 13.535156 39.1875 13.335938 38.882812 13.5 38.664062 C 13.535156 38.617188 13.515625 38.566406 13.515625 38.511719 C 13.527344 38.3125 13.679688 38.121094 13.589844 37.90625 C 13.996094 37.4375 13.742188 36.738281 14.023438 36.226562 C 14.050781 35.9375 14.265625 35.683594 14.222656 35.375 C 14.210938 35.304688 14.203125 35.230469 14.25 35.175781 C 14.367188 35.03125 14.382812 34.851562 14.457031 34.6875 C 14.511719 34.5625 14.511719 34.453125 14.457031 34.320312 C 14.773438 34.046875 14.375 33.949219 14.628906 33.660156 C 14.898438 33.28125 14.65625 32.800781 14.910156 32.421875 C 14.953125 32.339844 14.988281 32.269531 14.972656 32.160156 C 14.890625 31.871094 15.171875 31.644531 15.132812 31.355469 C 15.132812 31.308594 15.132812 31.257812 15.171875 31.21875 C 15.414062 30.949219 15.269531 30.605469 15.332031 30.289062 C 15.40625 29.980469 15.351562 29.664062 15.414062 29.359375 C 15.476562 28.796875 15.640625 28.257812 15.738281 27.707031 C 15.757812 27.542969 15.847656 27.453125 15.992188 27.378906 C 16.199219 27.28125 16.199219 27.273438 16.171875 27.046875 C 16.171875 26.820312 16.019531 26.640625 15.957031 26.441406 C 15.929688 26.140625 15.648438 26.070312 15.441406 25.953125 C 15.222656 25.734375 14.898438 25.699219 14.664062 25.511719 C 14.25 25.410156 13.933594 25.101562 13.527344 24.957031 C 13.226562 24.851562 12.949219 24.6875 12.675781 24.507812 C 12.496094 24.398438 12.289062 24.351562 12.132812 24.199219 C 11.792969 24.199219 11.582031 23.875 11.25 23.839844 C 10.976562 23.667969 10.699219 23.539062 10.425781 23.378906 C 10.082031 23.144531 9.6875 23.007812 9.34375 22.761719 C 9.097656 22.636719 8.828125 22.554688 8.65625 22.320312 C 8.492188 22.066406 8.148438 22.066406 7.933594 21.878906 C 7.707031 21.652344 7.425781 21.5 7.191406 21.289062 C 7.121094 21.199219 7.03125 21.117188 6.921875 21.082031 C 6.675781 21 6.488281 20.820312 6.253906 20.738281 C 5.765625 20.539062 5.386719 20.160156 4.890625 19.980469 C 4.789062 19.953125 4.734375 19.863281 4.691406 19.746094 C 4.960938 19.449219 5.402344 19.554688 5.71875 19.347656 C 5.738281 19.339844 5.765625 19.320312 5.785156 19.320312 C 6.054688 19.347656 6.289062 19.210938 6.542969 19.148438 C 6.769531 19.09375 7.011719 19.167969 7.210938 19.015625 C 7.664062 18.941406 8.105469 18.789062 8.566406 18.753906 C 8.691406 18.753906 8.828125 18.707031 8.945312 18.644531 C 9.359375 18.472656 9.832031 18.5625 10.265625 18.453125 C 10.941406 18.300781 11.628906 18.199219 12.316406 18.164062 C 13.878906 18.019531 15.441406 17.792969 16.949219 17.359375 C 17.128906 17.296875 17.347656 17.226562 17.472656 17.082031 C 17.753906 16.628906 18.160156 16.265625 18.414062 15.796875 C 18.511719 15.617188 18.640625 15.453125 18.675781 15.246094 C 18.675781 15.191406 18.710938 15.136719 18.746094 15.101562 C 19.144531 14.714844 19.234375 14.152344 19.523438 13.703125 C 20.039062 13.007812 20.183594 12.121094 20.644531 11.40625 C 20.878906 11.007812 21.042969 10.574219 21.1875 10.140625 C 21.214844 10.050781 21.25 9.96875 21.332031 9.917969 C 21.558594 9.726562 21.496094 9.363281 21.738281 9.175781 C 21.890625 8.894531 22.035156 8.578125 22.136719 8.261719 C 22.152344 8.191406 22.171875 8.128906 22.21875 8.074219 C 22.496094 7.746094 22.667969 7.359375 22.851562 6.980469 C 23.09375 6.382812 23.4375 5.851562 23.816406 5.328125 C 23.878906 5.15625 24.015625 5.039062 24.140625 4.910156 C 24.277344 4.621094 24.53125 4.484375 24.800781 4.367188 C 24.875 4.378906 24.902344 4.433594 24.902344 4.484375 C 24.980469 4.992188 25.261719 5.433594 25.378906 5.933594 C 25.488281 6.285156 25.523438 6.664062 25.695312 6.996094 C 25.757812 7.117188 25.769531 7.242188 25.785156 7.378906 C 25.832031 7.683594 25.839844 8.011719 25.992188 8.300781 C 26.039062 8.390625 26.066406 8.488281 26.074219 8.589844 C 26.109375 8.976562 26.246094 9.347656 26.253906 9.746094 C 26.253906 9.851562 26.300781 9.953125 26.328125 10.0625 C 26.347656 10.140625 26.382812 10.222656 26.355469 10.3125 C 26.355469 10.332031 26.347656 10.367188 26.355469 10.386719 C 26.480469 10.621094 26.445312 10.902344 26.5625 11.136719 C 26.679688 11.542969 26.6875 11.976562 26.886719 12.355469 C 27.023438 12.636719 26.925781 12.953125 27.078125 13.230469 C 27.160156 13.414062 27.132812 13.609375 27.1875 13.800781 C 27.242188 13.964844 27.285156 14.136719 27.25 14.324219 C 27.222656 14.460938 27.320312 14.585938 27.339844 14.722656 C 27.375 14.957031 27.339844 15.21875 27.492188 15.4375 C 27.519531 15.472656 27.519531 15.527344 27.511719 15.570312 C 27.476562 15.824219 27.53125 16.050781 27.648438 16.277344 C 27.890625 16.675781 27.992188 17.1875 28.453125 17.414062 C 29.003906 17.839844 29.273438 17.859375 29.960938 17.8125 C 30.574219 17.765625 31.214844 17.8125 31.820312 17.667969 C 31.992188 17.613281 32.164062 17.570312 32.34375 17.621094 C 32.398438 17.640625 32.453125 17.621094 32.5 17.605469 C 32.789062 17.503906 33.105469 17.378906 33.421875 17.40625 C 33.988281 17.46875 34.523438 17.207031 35.089844 17.226562 C 35.535156 17.109375 35.984375 17.007812 36.457031 17.015625 C 36.746094 17.015625 37.023438 16.964844 37.304688 16.898438 C 37.964844 16.84375 38.640625 16.835938 39.300781 16.71875 C 39.417969 16.691406 39.546875 16.65625 39.664062 16.699219 C 39.996094 16.699219 40.332031 16.609375 40.675781 16.582031 C 40.875 16.53125 41.046875 16.664062 41.246094 16.601562 C 41.398438 16.554688 41.507812 16.664062 41.605469 16.753906 C 41.660156 16.808594 41.640625 16.890625 41.585938 16.945312 C 41.28125 17.242188 41.125 17.648438 40.820312 17.957031 Z M 41.480469 19.230469 C 41.496094 19.109375 41.570312 19.003906 41.695312 18.914062 C 41.640625 19.066406 41.570312 19.140625 41.480469 19.230469 Z M 41.480469 19.230469 "/></g></svg>